<?xml version="1.0" encoding="utf-8"?>
<!-- Generator: Adobe Illustrator 18.0.0, SVG Export Plug-In . SVG Version: 6.00 Build 0)  -->
<!DOCTYPE svg PUBLIC "-//W3C//DTD SVG 1.1//EN" "http://www.w3.org/Graphics/SVG/1.1/DTD/svg11.dtd">
<svg version="1.1" id="Layer_1" xmlns="http://www.w3.org/2000/svg" xmlns:xlink="http://www.w3.org/1999/xlink" x="0px" y="0px"
	 viewBox="0 0 469.7 273.8" enable-background="new 0 0 469.7 273.8" xml:space="preserve">
<g>
	<linearGradient id="SVGID_1_" gradientUnits="userSpaceOnUse" x1="-100.9855" y1="136.9132" x2="466.1158" y2="136.9132">
		<stop  offset="0" style="stop-color:#3C96F5"/>
		<stop  offset="1" style="stop-color:#C81ED2"/>
	</linearGradient>
	<path fill="url(#SVGID_1_)" d="M0,36.7c71.9,20.4,154.1,9.8,226.5-5.2c35.1-7.3,67.9-23.9,103.5-29c26.9-3.9,55.3-3.4,82,2
		c19.9,4.1,40.1,11.8,57.7,22.2c0,0,0,213.5,0,213.5c-31.2-18.5-76.9-22.6-111.6-14.9c-39.4,8.8-75.8,27.2-115.4,35.6
		c-65.8,14-138.6,19.2-203.4,1.8C26,259.2,13,254.7,0,250.2"/>
	<g>
		<path fill="#FFFFFF" d="M125.5,114.6l-8.2,9.8c-5.8-4.5-11.5-6.1-18.1-5.4c-8.4,0.9-14.6,5.7-13.9,13c0.6,5.7,4.2,7.9,16.3,10.8
			c13.2,2.8,23.1,7.9,24.5,21.6c1.2,12.1-5.5,29.7-32.2,32.5c-13.6,1.4-23.6-2.7-30.6-9l8.7-10.4c5.7,4.9,12.3,7.3,20.9,6.5
			c9.9-1,17.4-6.9,16.5-15.8c-0.7-6.4-4.6-9.3-15.8-12c-15.8-3.3-23.6-9.3-24.8-21.2c-1.1-11.1,6.7-26.2,29-28.5
			C109.5,105.4,118.3,108.5,125.5,114.6z"/>
		<path fill="#FFFFFF" d="M148.6,133.5c5.6-8.8,12.8-13.1,20.8-14c9.9-1,17.4,4.6,18.3,13.2c1.1,10.5-4.3,19.3-16.5,25.1l16.3,27.6
			l-17.3,1.8l-16.7-30.4c14.4-5.9,19.1-11.9,18.3-19.8c-0.4-3.9-3-5.9-6.9-5.5c-5.8,0.6-12.5,6.1-16.9,17.7l-1.5,40.4l-15.6,1.6
			l3.5-92.8l15.6-3.3L148.6,133.5z"/>
		<path fill="#FFFFFF" d="M194.8,184.8l2.5-66.2l15.7-1.6l-2.5,66.2L194.8,184.8z M215.8,93.5c-0.2,5.3-4.1,9.5-9.8,10.1
			c-5.9,0.6-10-3.5-9.8-9.1c0.2-5.4,4.1-9.6,9.8-10.2C212,83.6,215.9,87.7,215.8,93.5z"/>
		<path fill="#FFFFFF" d="M280,121.6l13.3-1.4l2.1-11.7l-14.9,1.5l0.6-16.5l-12.9,2.8l-2.6,15.2l-21.5,2.2l0.3-6.6
			c0.2-6.4,3-9.8,9.4-10.4c2.8-0.3,6.6,0,10.5,1.9l4.5-10.4c-4.9-2.5-10.3-4.1-17.4-3.3c-14.6,1.5-22.2,10.9-22.6,22.9l-0.3,7.6
			l-10.5,1.1l-0.5,11.5l10.6-1.1l-2,49.5c-0.5,13.1-5.3,17.5-14.2,22.1l5.4,11.2c14.6-7.5,23.5-15,24.3-35.3l1.9-49.1l20.9-2.1
			l-1.3,34.7c-0.6,14,6,21.1,19,19.9c5.4-0.6,11.2-2.6,16.1-6.4l-5.5-10.2c-2.9,2-5.4,3-8,3.3c-4.4,0.5-6.3-1.6-5.9-8.1L280,121.6z"
			/>
		<path fill="#FFFFFF" d="M313.6,148.5c1.4,10.1,6.9,13,14.1,12.3c5.9-0.6,10.9-3,16.4-7.8l7.1,9.3c-6.6,5.8-14.5,9.9-24,10.9
			c-17.8,1.8-28-7.9-29.7-24.4c-1.8-17.8,5-42.8,31.3-45.4c14.9-1.5,23.4,5.7,24.3,15C355.1,136.7,334.9,144.1,313.6,148.5z
			 M337.3,120.7c-0.3-3-2.3-6.6-8.3-6c-11.1,1.1-14.9,12.6-15.6,23.3C330.7,134.5,338.1,128.7,337.3,120.7z"/>
		<path fill="#FFFFFF" d="M380.6,146.1c-0.3,6.5,1.5,8.6,5.9,8.1c2.6-0.3,5.1-1.3,8-3.3l5.5,10.2c-4.9,3.7-10.6,5.8-16.1,6.4
			c-13,1.2-19.6-5.9-19-19.9l1.3-34.7l-10.1,1l0.5-11.5l10.7-1.1L370,86l12.9-2.8l-0.6,16.5l14.9-1.5l-2.1,11.7l-13.3,1.4
			L380.6,146.1z"/>
	</g>
</g>
</svg>
